<svg width="30" height="30" viewBox="0 0 30 30" fill="none" xmlns="http://www.w3.org/2000/svg">
<path fill-rule="evenodd" clip-rule="evenodd" d="M26.8745 2.00353C25.9837 1.11304 24.7758 0.612793 23.5162 0.612793C22.2567 0.612793 21.0487 1.11304 20.158 2.00353L19.0386 3.12453L26.8761 10.962L27.9939 9.84261C28.4351 9.40152 28.785 8.87785 29.0238 8.3015C29.2625 7.72515 29.3854 7.10742 29.3854 6.48357C29.3854 5.85972 29.2625 5.24199 29.0238 4.66564C28.785 4.08929 28.4351 3.56562 27.9939 3.12453L26.8745 2.00353ZM24.6357 13.2009L16.7982 5.36336L2.40566 19.7574C2.0907 20.0725 1.87069 20.4697 1.77074 20.9038L0.14149 27.9575C0.0807836 28.2194 0.0877469 28.4924 0.161724 28.7508C0.235701 29.0093 0.374256 29.2446 0.564334 29.4347C0.754411 29.6248 0.989753 29.7633 1.24818 29.8373C1.50661 29.9113 1.77962 29.9182 2.04149 29.8575L9.09682 28.2299C9.53035 28.1296 9.927 27.9096 10.2416 27.5949L24.6357 13.2009Z" fill="black"/>
</svg>
