<svg width="125" height="127" viewBox="0 0 125 127" fill="none" xmlns="http://www.w3.org/2000/svg">
<rect x="25" width="100" height="100" rx="25" fill="#FF0508"/>
<rect x="40" y="19" width="71" height="24" rx="12" fill="white"/>
<path d="M58.0684 26.1523L57.7095 25.7788C57.5874 25.6714 57.4727 25.5835 57.3652 25.5151C57.2627 25.4468 57.1602 25.3931 57.0576 25.354C56.9551 25.3101 56.8501 25.2808 56.7427 25.2661C56.6401 25.2515 56.5254 25.2441 56.3984 25.2441C56.3545 25.2441 56.3276 25.249 56.3179 25.2588C56.186 25.2588 56.0811 25.2588 56.0029 25.2588C55.9297 25.2588 55.8735 25.2588 55.8345 25.2588C55.7954 25.2588 55.7686 25.2612 55.7539 25.2661C55.7441 25.2661 55.7393 25.2661 55.7393 25.2661H55.1753C55.0923 25.2905 55.0068 25.3052 54.9189 25.3101C54.8311 25.3149 54.7456 25.3174 54.6626 25.3174C54.4771 25.3174 54.3354 25.3198 54.2378 25.3247C54.145 25.3296 54.0693 25.3491 54.0107 25.3833C53.957 25.4028 53.9253 25.4297 53.9155 25.4639C53.9058 25.4932 53.9009 25.52 53.9009 25.5444C53.9009 25.647 53.8862 25.7227 53.8569 25.7715C53.8325 25.8154 53.7788 25.8643 53.6958 25.918C53.6812 25.9277 53.6689 25.9521 53.6592 25.9912C53.6543 26.0303 53.647 26.0742 53.6372 26.123C53.6323 26.1719 53.6274 26.2207 53.6226 26.2695C53.6226 26.3184 53.6226 26.3574 53.6226 26.3867C53.6226 26.499 53.6396 26.6064 53.6738 26.709C53.708 26.8115 53.7251 26.9263 53.7251 27.0532L53.6592 27.5146C53.6592 27.627 53.6836 27.7393 53.7324 27.8516C53.7861 27.9639 53.813 28.0859 53.813 28.2178L53.6958 29.3091C53.6958 29.353 53.7153 29.4043 53.7544 29.4629C53.7935 29.5166 53.8252 29.5581 53.8496 29.5874C54.001 29.6069 54.1548 29.6362 54.311 29.6753C54.4673 29.7095 54.6211 29.7266 54.7725 29.7266C54.8066 29.7266 54.8359 29.7241 54.8604 29.7192C54.8896 29.7095 54.9165 29.6777 54.9409 29.624C54.9946 29.6191 55.0581 29.6143 55.1313 29.6094C55.2095 29.6045 55.2974 29.6021 55.395 29.6021C55.5269 29.6021 55.6685 29.6021 55.8198 29.6021C55.9712 29.5972 56.1201 29.5898 56.2666 29.5801C56.4131 29.5654 56.5474 29.5459 56.6694 29.5215C56.7915 29.4922 56.8867 29.4507 56.9551 29.397C57.0234 29.353 57.0747 29.2896 57.1089 29.2065C57.1479 29.1235 57.1772 29.0356 57.1968 28.9429C57.2163 28.8452 57.2334 28.7476 57.248 28.6499C57.2627 28.5522 57.2822 28.4644 57.3066 28.3862C57.3359 28.3032 57.375 28.2373 57.4238 28.1885C57.4775 28.1348 57.5532 28.1079 57.6509 28.1079C57.6802 28.1079 57.707 28.1128 57.7314 28.1226C57.7607 28.1323 57.7876 28.1641 57.812 28.2178V28.5254C57.812 28.7598 57.7876 28.9844 57.7388 29.1992C57.7144 29.3701 57.6899 29.5264 57.6655 29.668C57.646 29.8047 57.6362 29.9438 57.6362 30.0854C57.6362 30.2075 57.6533 30.3271 57.6875 30.4443C57.7266 30.5566 57.7656 30.6689 57.8047 30.7812C57.8486 30.8887 57.8877 30.9985 57.9219 31.1108C57.9609 31.2231 57.9805 31.3379 57.9805 31.4551C57.9805 31.5283 57.978 31.5845 57.9731 31.6235C57.9731 31.6577 57.9634 31.6797 57.9438 31.6895C57.9194 31.7285 57.9023 31.7578 57.8926 31.7773C57.8828 31.7969 57.856 31.8066 57.812 31.8066C57.7388 31.8066 57.6826 31.7798 57.6436 31.7261C57.6094 31.6724 57.5654 31.6187 57.5117 31.5649L57.4092 31.3379C57.3555 31.2207 57.3042 31.1084 57.2554 31.001C57.2065 30.8936 57.1479 30.7935 57.0796 30.7007C57.0161 30.603 56.9404 30.5127 56.8525 30.4297C56.7695 30.3418 56.667 30.2637 56.5449 30.1953H56.2153C56.0444 30.1953 55.8687 30.1929 55.688 30.188C55.5073 30.1782 55.3511 30.1611 55.2192 30.1367L54.7725 30.0562C54.6455 30.0562 54.5063 30.0781 54.355 30.1221C54.2085 30.166 54.0693 30.1904 53.9375 30.1953C53.8936 30.249 53.8423 30.3174 53.7837 30.4004C53.7251 30.4785 53.6958 30.564 53.6958 30.6567C53.7739 31.0181 53.8398 31.3745 53.8936 31.7261C53.9473 32.0728 53.9741 32.4219 53.9741 32.7734C53.9741 32.9395 53.9692 33.0518 53.9595 33.1104C53.9546 33.1641 53.9473 33.208 53.9375 33.2422C53.9766 33.3594 54.0303 33.4644 54.0986 33.5571C54.1719 33.645 54.2549 33.7256 54.3477 33.7988C54.4404 33.8672 54.5381 33.9307 54.6406 33.9893C54.7432 34.0479 54.8433 34.1016 54.9409 34.1504C54.9458 34.1504 54.9604 34.165 54.9849 34.1943C55.0142 34.2236 55.0288 34.2432 55.0288 34.2529C55.0483 34.2627 55.0923 34.2725 55.1606 34.2822C55.229 34.2871 55.2729 34.2896 55.2925 34.2896C55.3315 34.2896 55.3633 34.2896 55.3877 34.2896C55.417 34.2896 55.4487 34.2847 55.4829 34.2749C55.522 34.27 55.5537 34.2676 55.5781 34.2676C55.6074 34.2676 55.6392 34.2676 55.6733 34.2676C55.7075 34.2676 55.7441 34.2676 55.7832 34.2676C55.8223 34.2676 55.8564 34.27 55.8857 34.2749C55.9199 34.2847 55.9517 34.2896 55.981 34.2896C56.0151 34.2896 56.0469 34.2896 56.0762 34.2896C56.1006 34.314 56.1299 34.3384 56.1641 34.3628C56.2031 34.3872 56.2373 34.4165 56.2666 34.4507C56.3008 34.4849 56.3276 34.5215 56.3472 34.5605C56.3716 34.5996 56.3838 34.6436 56.3838 34.6924C56.3838 34.7461 56.3716 34.8022 56.3472 34.8608C56.3228 34.9146 56.2886 34.9658 56.2446 35.0146C56.2056 35.0684 56.1616 35.1099 56.1128 35.1392C56.064 35.1733 56.0151 35.1904 55.9663 35.1904H55.9517C55.8979 35.2002 55.8369 35.2051 55.7686 35.2051C55.7051 35.21 55.6489 35.2124 55.6001 35.2124C55.5317 35.2124 55.4658 35.21 55.4023 35.2051C55.3438 35.2051 55.2656 35.2002 55.168 35.1904L55.0288 35.1538C54.9458 35.1099 54.853 35.0708 54.7505 35.0366C54.6479 35.0024 54.5405 34.9731 54.4282 34.9487C54.3208 34.9243 54.2109 34.9072 54.0986 34.8975C53.9912 34.8828 53.8911 34.8755 53.7983 34.8755C53.6958 34.8755 53.6079 34.8804 53.5347 34.8901C53.4614 34.895 53.3638 34.9146 53.2417 34.9487C53.1294 34.9683 53.0122 34.9829 52.8901 34.9927C52.7729 34.9976 52.6582 35 52.5459 35C52.4189 35 52.2993 34.9976 52.187 34.9927C52.0796 34.9829 51.9624 34.9683 51.8354 34.9487C51.7769 34.9683 51.7207 35 51.667 35.0439C51.6182 35.0879 51.5522 35.1196 51.4692 35.1392C51.4351 35.1294 51.4033 35.1196 51.374 35.1099C51.3496 35.105 51.3203 35.1025 51.2861 35.1025C51.2617 35.1123 51.2251 35.1172 51.1763 35.1172H50.8979C50.7856 35.0781 50.6929 35.0391 50.6196 35C50.5513 34.9609 50.5 34.8853 50.4658 34.7729C50.4658 34.6167 50.5464 34.4849 50.7075 34.3774C50.8247 34.3677 50.9761 34.3359 51.1616 34.2822C51.3521 34.2285 51.5352 34.1577 51.7109 34.0698C51.8867 33.9819 52.0381 33.877 52.165 33.7549C52.2969 33.6328 52.3628 33.4985 52.3628 33.3521C52.3628 33.0933 52.3555 32.8711 52.3408 32.6855C52.3311 32.4951 52.3164 32.312 52.2969 32.1362C52.2822 31.9604 52.2676 31.7773 52.2529 31.5869C52.2432 31.3916 52.2383 31.1572 52.2383 30.8838C52.2383 30.8008 52.2456 30.7202 52.2603 30.6421C52.2798 30.5591 52.2969 30.4785 52.3115 30.4004C52.3311 30.3174 52.3481 30.2368 52.3628 30.1587C52.3823 30.0757 52.3921 29.9927 52.3921 29.9097C52.3921 29.895 52.3896 29.8755 52.3848 29.8511C52.3848 29.8267 52.3848 29.8022 52.3848 29.7778C52.3848 29.7485 52.3823 29.7241 52.3774 29.7046C52.3774 29.6802 52.3774 29.668 52.3774 29.668L52.2896 29.3457V28.7817C52.2896 28.6987 52.2798 28.6157 52.2603 28.5327C52.2407 28.4497 52.2188 28.3667 52.1943 28.2837C52.1748 28.2007 52.1553 28.1201 52.1357 28.042C52.1211 27.959 52.1138 27.8784 52.1138 27.8003C52.1138 27.7808 52.1162 27.749 52.1211 27.7051C52.1309 27.6562 52.1406 27.6221 52.1504 27.6025C52.1699 27.5049 52.1846 27.4072 52.1943 27.3096C52.209 27.207 52.2163 27.1045 52.2163 27.002C52.2163 26.9043 52.2114 26.8091 52.2017 26.7163C52.1919 26.6187 52.1748 26.521 52.1504 26.4233C52.1504 26.3354 52.1284 26.25 52.0845 26.167C52.0454 26.0791 51.9917 25.9961 51.9233 25.918C51.8599 25.8398 51.7891 25.7715 51.7109 25.7129C51.6328 25.6494 51.5596 25.603 51.4912 25.5737C51.4033 25.5396 51.2837 25.5176 51.1323 25.5078C50.981 25.498 50.8296 25.481 50.6782 25.4565C50.5269 25.4272 50.395 25.3809 50.2827 25.3174C50.1753 25.249 50.1216 25.1392 50.1216 24.9878V24.8779C50.1997 24.834 50.2949 24.79 50.4072 24.7461C50.5244 24.6973 50.6245 24.6729 50.7075 24.6729H50.8833C50.9517 24.6729 51.0176 24.6802 51.0811 24.6948C51.1494 24.7095 51.2056 24.7437 51.2495 24.7974C51.3325 24.812 51.4155 24.8242 51.4985 24.834C51.5815 24.8438 51.6646 24.8486 51.7476 24.8486C51.8208 24.8486 51.9014 24.8438 51.9893 24.834C52.0771 24.8242 52.165 24.812 52.2529 24.7974C52.2773 24.7583 52.2944 24.7363 52.3042 24.7314C52.3188 24.7266 52.3433 24.7241 52.3774 24.7241C52.48 24.7241 52.5801 24.7437 52.6777 24.7827C52.7754 24.8218 52.8877 24.8413 53.0146 24.8413H53.1758C53.2295 24.8413 53.2856 24.8413 53.3442 24.8413C53.4028 24.8364 53.4663 24.8218 53.5347 24.7974C53.7104 24.8267 53.9033 24.8413 54.1133 24.8413C54.3086 24.8413 54.5063 24.8267 54.7065 24.7974C54.8872 24.7339 55.0776 24.7021 55.2778 24.7021C55.4829 24.7021 55.6953 24.6924 55.915 24.6729C56.0273 24.6631 56.1323 24.6558 56.23 24.6509C56.3325 24.6411 56.4351 24.6362 56.5376 24.6362C56.6108 24.6362 56.6865 24.6411 56.7646 24.6509C56.8428 24.6558 56.9233 24.6631 57.0063 24.6729C57.0259 24.6826 57.0503 24.6997 57.0796 24.7241C57.1138 24.7437 57.1455 24.7656 57.1748 24.79C57.209 24.8145 57.2407 24.8364 57.27 24.856C57.2993 24.8706 57.3213 24.8779 57.3359 24.8779C57.3799 24.8779 57.4165 24.8706 57.4458 24.856C57.48 24.8413 57.5215 24.8218 57.5703 24.7974C57.6484 24.7778 57.729 24.7656 57.812 24.7607C57.895 24.751 57.9805 24.7461 58.0684 24.7461C58.2197 24.7461 58.3711 24.7632 58.5225 24.7974C58.5322 24.7974 58.5542 24.8145 58.5884 24.8486C58.6274 24.8779 58.6665 24.9121 58.7056 24.9512C58.7495 24.9854 58.7886 25.0195 58.8228 25.0537C58.8569 25.083 58.8765 25.1001 58.8813 25.105V26.1523C58.979 26.3916 59.0278 26.6333 59.0278 26.8774C59.0278 26.936 59.0254 26.9971 59.0205 27.0605C59.0205 27.1191 59.0107 27.1753 58.9912 27.229C58.9766 27.2827 58.9497 27.3267 58.9106 27.3608C58.8716 27.395 58.8179 27.4121 58.7495 27.4121C58.7202 27.3779 58.686 27.3364 58.647 27.2876C58.6079 27.2388 58.5664 27.1899 58.5225 27.1411C58.4834 27.0874 58.4443 27.0361 58.4053 26.9873C58.3711 26.9385 58.3418 26.8945 58.3174 26.8555C58.3174 26.8457 58.3076 26.8188 58.2881 26.7749C58.2686 26.7261 58.2466 26.6772 58.2222 26.6284C58.1978 26.5747 58.1733 26.5259 58.1489 26.4819C58.1294 26.4331 58.1147 26.4014 58.105 26.3867C58.0952 26.377 58.0854 26.3379 58.0757 26.2695C58.0708 26.2012 58.0684 26.1621 58.0684 26.1523ZM64.0376 33.418C64.0376 33.3838 64.0327 33.3398 64.0229 33.2861C64.0132 33.2324 64.0059 33.1958 64.001 33.1763C63.9912 33.1616 63.9668 33.1396 63.9277 33.1104C63.8887 33.0762 63.8667 33.0566 63.8618 33.0518C63.8374 33.0127 63.8179 32.9663 63.8032 32.9126C63.7935 32.8589 63.7837 32.8125 63.7739 32.7734C63.7642 32.7393 63.7471 32.6904 63.7227 32.627C63.7031 32.5586 63.6885 32.5171 63.6787 32.5024C63.6787 32.4927 63.6665 32.4707 63.6421 32.4365C63.6177 32.3975 63.6006 32.373 63.5908 32.3633L63.5542 32.29C63.5542 32.2754 63.5591 32.2437 63.5688 32.1948C63.5835 32.146 63.5908 32.1191 63.5908 32.1143C63.5908 32.0898 63.5933 32.041 63.5981 31.9678C63.603 31.8945 63.6055 31.8164 63.6055 31.7334C63.6055 31.6504 63.603 31.5747 63.5981 31.5063C63.5933 31.4331 63.5908 31.3818 63.5908 31.3525L63.6421 31.2134C63.6421 31.2085 63.6421 31.1914 63.6421 31.1621C63.647 31.1279 63.6519 31.0938 63.6567 31.0596C63.6616 31.0205 63.6665 30.9863 63.6714 30.957C63.6763 30.9229 63.6787 30.9009 63.6787 30.8911C63.6885 30.8716 63.7153 30.835 63.7593 30.7812C63.8032 30.7275 63.8374 30.6885 63.8618 30.6641C63.8618 30.6592 63.8545 30.6421 63.8398 30.6128C63.8252 30.5786 63.8179 30.5542 63.8179 30.5396C63.813 30.5396 63.8105 30.5371 63.8105 30.5322V30.5176L63.8179 30.4883C63.8569 30.4199 63.9033 30.3442 63.957 30.2612C64.0107 30.1733 64.0718 30.1025 64.1401 30.0488C64.1938 30 64.2451 29.9585 64.2939 29.9243C64.3477 29.8853 64.3965 29.8364 64.4404 29.7778C64.4844 29.7241 64.521 29.6631 64.5503 29.5947C64.5845 29.5215 64.6235 29.4531 64.6675 29.3896C64.6675 29.3799 64.6724 29.3701 64.6821 29.3604C64.6919 29.3506 64.7017 29.3433 64.7114 29.3384C64.8188 29.2603 64.9287 29.1772 65.041 29.0894C65.1533 28.9966 65.2656 28.9185 65.3779 28.855C65.3828 28.8501 65.3975 28.8403 65.4219 28.8257C65.4512 28.811 65.4805 28.7964 65.5098 28.7817C65.5439 28.7671 65.5732 28.7549 65.5977 28.7451C65.6221 28.7305 65.6392 28.7207 65.6489 28.7158L65.8247 28.5767C65.8394 28.5718 65.8687 28.5693 65.9126 28.5693C65.9565 28.5645 66.0029 28.5596 66.0518 28.5547C66.1006 28.5498 66.147 28.5474 66.1909 28.5474C66.2349 28.5425 66.2642 28.54 66.2788 28.54C66.2837 28.5352 66.2959 28.5278 66.3154 28.5181C66.335 28.5083 66.3569 28.4985 66.3813 28.4888C66.4058 28.479 66.4277 28.4717 66.4473 28.4668C66.4717 28.457 66.4863 28.4521 66.4912 28.4521C66.5742 28.4277 66.667 28.4058 66.7695 28.3862C66.877 28.3618 66.9746 28.3496 67.0625 28.3496C67.1846 28.3496 67.3042 28.374 67.4214 28.4229C67.5435 28.4668 67.6655 28.501 67.7876 28.5254C67.9194 28.5547 68.0513 28.584 68.1831 28.6133C68.3149 28.6377 68.4443 28.667 68.5713 28.7012C68.7031 28.7354 68.8301 28.7793 68.9521 28.833C69.0742 28.8818 69.1938 28.9478 69.311 29.0308C69.3159 29.0356 69.3281 29.0503 69.3477 29.0747C69.3672 29.0942 69.3892 29.1162 69.4136 29.1406C69.438 29.165 69.4624 29.1895 69.4868 29.2139C69.5112 29.2334 69.5283 29.2456 69.5381 29.2505C69.543 29.2554 69.5698 29.2627 69.6187 29.2725C69.6724 29.2822 69.7041 29.2871 69.7139 29.2871C69.7334 29.3018 69.748 29.3237 69.7578 29.353C69.7676 29.3774 69.7749 29.4067 69.7798 29.4409C69.7896 29.4702 69.7969 29.4995 69.8018 29.5288C69.8115 29.5581 69.8237 29.5825 69.8384 29.6021C69.8433 29.6069 69.8506 29.6191 69.8604 29.6387C69.875 29.6582 69.8896 29.6777 69.9043 29.6973C69.9238 29.7168 69.9385 29.7363 69.9482 29.7559C69.9629 29.7705 69.9727 29.7778 69.9775 29.7778L70.0142 30.0049C70.0288 30.0293 70.0581 30.0635 70.1021 30.1074C70.1509 30.1514 70.1826 30.1782 70.1973 30.188V30.5908C70.1973 30.625 70.207 30.6665 70.2266 30.7153C70.251 30.7642 70.2754 30.8154 70.2998 30.8691C70.3242 30.9229 70.3486 30.9766 70.373 31.0303C70.3975 31.084 70.4146 31.1328 70.4243 31.1768C70.439 31.25 70.4487 31.3135 70.4536 31.3672C70.4585 31.4209 70.4634 31.4746 70.4683 31.5283C70.4731 31.5771 70.4756 31.6284 70.4756 31.6821C70.4756 31.7358 70.4756 31.7993 70.4756 31.8726V32.1509C70.4756 32.1606 70.4683 32.1997 70.4536 32.2681C70.439 32.3315 70.4292 32.3804 70.4243 32.4146C70.4146 32.4438 70.4048 32.4805 70.395 32.5244C70.3853 32.5684 70.3755 32.6123 70.3657 32.6562C70.3608 32.7002 70.3535 32.7393 70.3438 32.7734C70.3389 32.8027 70.3364 32.8174 70.3364 32.8174C70.3267 32.832 70.3071 32.8613 70.2778 32.9053C70.2485 32.9492 70.2144 32.998 70.1753 33.0518C70.1411 33.1006 70.1069 33.147 70.0728 33.1909C70.0435 33.23 70.0239 33.2544 70.0142 33.2642C70.0142 33.269 70.0044 33.2861 69.9849 33.3154C69.9702 33.3447 69.9531 33.3789 69.9336 33.418C69.9141 33.4521 69.8945 33.4863 69.875 33.5205C69.8555 33.5498 69.8433 33.5693 69.8384 33.5791C69.7749 33.667 69.7017 33.75 69.6187 33.8281C69.5405 33.9014 69.4673 33.9795 69.3989 34.0625C69.355 34.1211 69.3257 34.1626 69.311 34.187C69.2964 34.2114 69.2646 34.2456 69.2158 34.2896C69.1475 34.3433 69.084 34.3848 69.0254 34.4141C68.9668 34.4434 68.9082 34.4897 68.8496 34.5532C68.8496 34.563 68.8398 34.5874 68.8203 34.6265C68.8008 34.6655 68.7861 34.6851 68.7764 34.6851C68.7666 34.6899 68.7495 34.6948 68.7251 34.6997C68.7007 34.7046 68.6714 34.7095 68.6372 34.7144C68.6079 34.7192 68.5786 34.7241 68.5493 34.729C68.5249 34.729 68.5078 34.7314 68.498 34.7363C68.4688 34.751 68.415 34.7754 68.3369 34.8096C68.2637 34.8389 68.1831 34.873 68.0952 34.9121C68.0122 34.9463 67.9316 34.9805 67.8535 35.0146C67.7803 35.0537 67.729 35.083 67.6997 35.1025H67.2676C66.8379 35.1025 66.4155 35.0269 66.0005 34.8755L65.9126 34.8242C65.9028 34.8096 65.8906 34.7949 65.876 34.7803C65.8467 34.751 65.8296 34.7363 65.8247 34.7363C65.8198 34.7314 65.8052 34.7266 65.7808 34.7217C65.7612 34.7168 65.7393 34.7119 65.7148 34.707C65.6904 34.7021 65.666 34.6973 65.6416 34.6924C65.6172 34.6875 65.6025 34.6851 65.5977 34.6851C65.4219 34.646 65.2632 34.5801 65.1216 34.4873C64.9849 34.3945 64.8579 34.2896 64.7407 34.1724C64.6235 34.0552 64.5088 33.9331 64.3965 33.8062C64.2842 33.6743 64.1646 33.5522 64.0376 33.4399V33.418ZM65.7368 33.8501C65.7271 33.8647 65.7222 33.8843 65.7222 33.9087C65.7222 33.9478 65.7344 33.9819 65.7588 34.0112C65.7881 34.0405 65.8198 34.0674 65.854 34.0918C65.8882 34.1113 65.9224 34.1309 65.9565 34.1504C65.9956 34.1699 66.0273 34.187 66.0518 34.2017C66.1006 34.2407 66.1494 34.2847 66.1982 34.3335C66.252 34.3774 66.3057 34.4214 66.3594 34.4653C66.418 34.5044 66.4766 34.5386 66.5352 34.5679C66.5938 34.5923 66.6597 34.6045 66.7329 34.6045C66.7866 34.6143 66.8379 34.6216 66.8867 34.6265C66.9355 34.6313 66.9868 34.6338 67.0405 34.6338C67.0845 34.6338 67.126 34.6313 67.165 34.6265C67.209 34.6216 67.2505 34.6143 67.2896 34.6045L67.4287 34.5532L67.6338 34.5459L67.8389 34.5532C67.8486 34.5483 67.8608 34.5435 67.8755 34.5386C67.895 34.5337 67.9121 34.5239 67.9268 34.5093C67.9414 34.4995 67.9609 34.4897 67.9854 34.48C68.0098 34.4653 68.0342 34.4507 68.0586 34.436C68.083 34.4165 68.1099 34.397 68.1392 34.3774C68.1489 34.3726 68.166 34.3579 68.1904 34.3335C68.2197 34.3042 68.249 34.2749 68.2783 34.2456C68.3076 34.2163 68.3345 34.1895 68.3589 34.165C68.3833 34.1357 68.4004 34.1187 68.4102 34.1138L68.5493 34.0259C68.5835 33.9917 68.6274 33.9453 68.6812 33.8867C68.7349 33.8232 68.7861 33.7573 68.835 33.689C68.8838 33.6157 68.9253 33.5449 68.9595 33.4766C68.9985 33.4082 69.0205 33.3496 69.0254 33.3008C69.0303 33.2861 69.0352 33.2642 69.04 33.2349C69.0498 33.2056 69.0571 33.1738 69.062 33.1396C69.0669 33.1055 69.0693 33.0762 69.0693 33.0518C69.0742 33.0225 69.0767 33.0054 69.0767 33.0005C69.106 32.7222 69.1206 32.4512 69.1206 32.1875C69.1206 31.9775 69.106 31.77 69.0767 31.5649C69.0571 31.5356 69.0449 31.5039 69.04 31.4697C69.04 31.4355 69.04 31.3989 69.04 31.3599V31.1841C69.04 31.1353 69.0352 31.0986 69.0254 31.0742C69.0205 31.0156 68.9961 30.9644 68.9521 30.9204C68.9082 30.8716 68.874 30.8203 68.8496 30.7666C68.8105 30.6787 68.7788 30.5981 68.7544 30.5249C68.7349 30.4468 68.708 30.3638 68.6738 30.2759C68.6689 30.2661 68.6641 30.2539 68.6592 30.2393C68.6543 30.2246 68.647 30.2075 68.6372 30.188L68.498 29.9536C68.498 29.9487 68.4932 29.9219 68.4834 29.873C68.4736 29.8242 68.4663 29.7925 68.4614 29.7778C68.3589 29.6362 68.2295 29.5312 68.0732 29.4629C67.9219 29.3896 67.7681 29.3188 67.6118 29.2505C67.5972 29.2407 67.5703 29.231 67.5312 29.2212C67.4971 29.2114 67.4775 29.2065 67.4727 29.2065H67.165L66.938 29.1553H66.4912L66.2275 29.2871C66.1738 29.3115 66.1274 29.3262 66.0884 29.3311C66.0493 29.3359 66.0078 29.3555 65.9639 29.3896C65.8809 29.4434 65.8003 29.502 65.7222 29.5654C65.644 29.624 65.5586 29.6826 65.4658 29.7412C65.4609 29.7412 65.4561 29.7437 65.4512 29.7485C65.4512 29.7534 65.4463 29.7583 65.4365 29.7632C65.4268 29.7681 65.4194 29.7729 65.4146 29.7778C65.4146 29.7876 65.4121 29.8047 65.4072 29.8291C65.4072 29.8486 65.4048 29.8706 65.3999 29.895C65.395 29.9194 65.3901 29.9438 65.3853 29.9683C65.3853 29.9878 65.3828 30 65.3779 30.0049L65.29 30.0928C65.2754 30.1123 65.2583 30.1416 65.2388 30.1807C65.2241 30.2148 65.207 30.2515 65.1875 30.2905C65.168 30.3247 65.1509 30.3589 65.1362 30.3931C65.1265 30.4224 65.1191 30.4419 65.1143 30.4517V30.6641C65.1094 30.6738 65.1021 30.6934 65.0923 30.7227C65.0825 30.752 65.0728 30.7812 65.063 30.8105C65.0532 30.8398 65.0435 30.8691 65.0337 30.8984C65.0288 30.9229 65.0264 30.9375 65.0264 30.9424V31.0083L65.1143 31.4404C65.1143 31.4941 65.0996 31.5405 65.0703 31.5796C65.041 31.6138 65.0264 31.6602 65.0264 31.7188C65.0264 31.875 65.0508 32.0117 65.0996 32.1289C65.1484 32.2412 65.1826 32.3657 65.2021 32.5024L65.29 33.3008L65.3779 33.4399C65.3828 33.4448 65.3901 33.4619 65.3999 33.4912C65.4048 33.5059 65.4097 33.5181 65.4146 33.5278L65.7368 33.8501ZM75.2656 34.6851C75.2656 34.6753 75.2778 34.6484 75.3022 34.6045C75.3267 34.5605 75.3438 34.5312 75.3535 34.5166C75.4219 34.4287 75.5146 34.3677 75.6318 34.3335C75.749 34.2944 75.8638 34.2749 75.9761 34.2749C76.0103 34.2749 76.0396 34.2749 76.064 34.2749C76.0933 34.2749 76.1226 34.2798 76.1519 34.2896C76.2056 34.2505 76.2495 34.2041 76.2837 34.1504C76.3228 34.0967 76.3545 34.0381 76.3789 33.9746C76.374 33.9551 76.3691 33.9233 76.3643 33.8794C76.3594 33.8306 76.3569 33.7769 76.3569 33.7183C76.3569 33.6646 76.3594 33.6133 76.3643 33.5645C76.3691 33.5107 76.374 33.4741 76.3789 33.4546C76.3887 33.3765 76.4131 33.3057 76.4521 33.2422C76.4912 33.1787 76.5107 33.1055 76.5107 33.0225V32.9565L76.4229 32.7808V32.5684C76.4082 32.4365 76.3887 32.3047 76.3643 32.1729C76.3398 32.0361 76.3276 31.897 76.3276 31.7554L76.4229 31.2207L76.4082 30.9424C76.4082 30.9229 76.4082 30.9033 76.4082 30.8838C76.4082 30.8594 76.4131 30.8374 76.4229 30.8179C76.4326 30.7397 76.4399 30.6616 76.4448 30.5835C76.4546 30.5054 76.4595 30.4272 76.4595 30.3491C76.4595 30.271 76.4546 30.1953 76.4448 30.1221C76.4399 30.0439 76.4326 29.9634 76.4229 29.8804C76.4131 29.8267 76.4082 29.7705 76.4082 29.7119C76.4131 29.6484 76.4033 29.5898 76.3789 29.5361C76.3398 29.4629 76.2935 29.3945 76.2397 29.3311C76.186 29.2627 76.1274 29.2041 76.064 29.1553C76.0054 29.1064 75.9419 29.0771 75.8735 29.0674C75.8052 29.0527 75.7344 29.043 75.6611 29.0381C75.5928 29.0283 75.5269 29.0112 75.4634 28.9868C75.4048 28.9624 75.356 28.9136 75.3169 28.8403C75.312 28.8354 75.3096 28.8281 75.3096 28.8184C75.3047 28.8135 75.3022 28.8037 75.3022 28.7891C75.3022 28.7451 75.3145 28.7109 75.3389 28.6865C75.3682 28.6572 75.3999 28.6353 75.4341 28.6206C75.4731 28.606 75.5146 28.5962 75.5586 28.5913C75.6025 28.5864 75.6392 28.5815 75.6685 28.5767H75.9761C76.0444 28.5669 76.1152 28.5474 76.1885 28.5181C76.2666 28.4888 76.3447 28.4741 76.4229 28.4741C76.4326 28.4741 76.4497 28.4741 76.4741 28.4741C76.4985 28.4741 76.5107 28.479 76.5107 28.4888C76.5156 28.4888 76.5425 28.5034 76.5913 28.5327C76.6401 28.562 76.6719 28.5767 76.6865 28.5767H76.9868L77.4702 28.6133C77.48 28.623 77.4995 28.6279 77.5288 28.6279C77.563 28.6279 77.585 28.6279 77.5947 28.6279C77.6729 28.6279 77.7363 28.6206 77.7852 28.606C77.8389 28.5864 77.9072 28.5767 77.9902 28.5767C78.166 28.5767 78.3467 28.584 78.5322 28.5986C78.7178 28.6133 78.9009 28.6475 79.0815 28.7012C79.1987 28.7354 79.311 28.7646 79.4185 28.7891C79.5259 28.8086 79.626 28.8354 79.7188 28.8696C79.8164 28.8989 79.9067 28.9429 79.9897 29.0015C80.0776 29.0552 80.1582 29.1333 80.2314 29.2358C80.29 29.3237 80.3364 29.397 80.3706 29.4556C80.4097 29.5093 80.439 29.5654 80.4585 29.624C80.478 29.6777 80.4902 29.7412 80.4951 29.8145C80.5 29.8828 80.5024 29.9731 80.5024 30.0854C80.5024 30.1831 80.4878 30.2783 80.4585 30.3711C80.4341 30.459 80.3853 30.5396 80.312 30.6128C80.2974 30.6274 80.2705 30.6567 80.2314 30.7007C80.1924 30.7446 80.1484 30.791 80.0996 30.8398C80.0508 30.8838 80.0044 30.9277 79.9604 30.9717C79.9214 31.0156 79.8945 31.0449 79.8799 31.0596C79.8604 31.0596 79.8262 31.0645 79.7773 31.0742C79.7334 31.084 79.709 31.0962 79.7041 31.1108C79.6943 31.1157 79.6699 31.1279 79.6309 31.1475C79.5967 31.1621 79.5576 31.1792 79.5137 31.1987C79.4746 31.2134 79.438 31.2305 79.4038 31.25C79.3696 31.2646 79.3501 31.272 79.3452 31.272C79.3208 31.2817 79.2915 31.2891 79.2573 31.2939C79.228 31.2988 79.1987 31.3062 79.1694 31.3159C79.1401 31.3208 79.1157 31.333 79.0962 31.3525C79.0767 31.3672 79.0669 31.3916 79.0669 31.4258C79.0669 31.4893 79.0767 31.5576 79.0962 31.6309C79.1157 31.6992 79.1401 31.7676 79.1694 31.8359C79.2036 31.8994 79.2427 31.9604 79.2866 32.019C79.3306 32.0776 79.377 32.124 79.4258 32.1582C79.4355 32.168 79.4575 32.1875 79.4917 32.2168C79.5308 32.2412 79.5552 32.2534 79.5649 32.2534L79.6089 32.3047C79.6187 32.3096 79.6406 32.3389 79.6748 32.3926C79.7139 32.4414 79.7407 32.4707 79.7554 32.4805C79.7554 32.4805 79.7651 32.4927 79.7847 32.5171C79.8042 32.5366 79.8262 32.5586 79.8506 32.583C79.875 32.6074 79.897 32.6318 79.9165 32.6562C79.9409 32.6807 79.958 32.6978 79.9678 32.7075C79.9727 32.7173 79.9873 32.749 80.0117 32.8027C80.0361 32.8516 80.063 32.9053 80.0923 32.9639C80.1216 33.0225 80.1484 33.0786 80.1729 33.1323C80.2021 33.1812 80.2217 33.2129 80.2314 33.2275C80.2363 33.2373 80.251 33.2593 80.2754 33.2935C80.2998 33.3276 80.3267 33.3667 80.356 33.4106C80.3901 33.4546 80.4243 33.4985 80.4585 33.5425C80.4927 33.5815 80.5195 33.6108 80.5391 33.6304C80.5928 33.6938 80.6489 33.7476 80.7075 33.7915C80.7661 33.8354 80.8271 33.8843 80.8906 33.938L81.2495 34.2017L81.7036 34.2529C81.7231 34.2578 81.7549 34.27 81.7988 34.2896C81.8428 34.3091 81.8843 34.3359 81.9233 34.3701C81.9673 34.3994 82.0039 34.4336 82.0332 34.4727C82.0674 34.5068 82.0845 34.5435 82.0845 34.5825C82.0845 34.6021 82.0723 34.6362 82.0479 34.6851C82.0234 34.729 81.9917 34.7754 81.9526 34.8242C81.9185 34.8682 81.8794 34.9097 81.8354 34.9487C81.7964 34.9829 81.7598 35 81.7256 35H81.1177C81.064 34.9561 80.9858 34.9243 80.8833 34.9048C80.7808 34.8853 80.6953 34.8706 80.627 34.8608H80.0923C79.897 34.7925 79.7529 34.6924 79.6602 34.5605C79.5674 34.4238 79.4893 34.2627 79.4258 34.0771C79.4258 34.0674 79.416 34.0454 79.3965 34.0112C79.3818 33.9722 79.3477 33.9185 79.2939 33.8501L79.2427 33.6304C79.2427 33.6206 79.2378 33.606 79.228 33.5864C79.2231 33.5669 79.2158 33.5522 79.2061 33.5425C79.1768 33.4985 79.1353 33.4399 79.0815 33.3667C79.0327 33.2886 78.9814 33.2104 78.9277 33.1323C78.8789 33.0542 78.8325 32.9883 78.7886 32.9346C78.7495 32.876 78.7275 32.8418 78.7227 32.832L78.1953 32.2534C78.127 32.1851 78.0488 32.1289 77.9609 32.085C77.873 32.041 77.7852 32.019 77.6973 32.019C77.6777 32.019 77.6606 32.0215 77.646 32.0264C77.6313 32.0312 77.6191 32.0459 77.6094 32.0703C77.6094 32.085 77.6118 32.1069 77.6167 32.1362C77.6216 32.1606 77.624 32.1899 77.624 32.2241C77.624 32.2583 77.6216 32.29 77.6167 32.3193C77.6118 32.3486 77.6094 32.3682 77.6094 32.3779L77.5728 32.5684V33.0884C77.5728 33.0981 77.5654 33.1299 77.5508 33.1836C77.541 33.2373 77.5312 33.2764 77.5215 33.3008C77.5215 33.4033 77.5337 33.4888 77.5581 33.5571C77.5874 33.6206 77.6216 33.7012 77.6606 33.7988L77.6094 34.0259C77.6094 34.1138 77.6411 34.1675 77.7046 34.187C77.7729 34.2065 77.8438 34.2212 77.917 34.231C77.9951 34.2407 78.0659 34.2651 78.1294 34.3042C78.1978 34.3433 78.2319 34.4238 78.2319 34.5459C78.2319 34.6191 78.21 34.6753 78.166 34.7144C78.127 34.7485 78.0781 34.7729 78.0195 34.7876C77.9609 34.8022 77.8975 34.812 77.8291 34.8169C77.7656 34.8169 77.7095 34.8193 77.6606 34.8242H76.811C76.7866 34.8291 76.7402 34.8364 76.6719 34.8462C76.6084 34.8511 76.5376 34.8584 76.4595 34.8682C76.3862 34.873 76.3154 34.8804 76.2471 34.8901C76.1787 34.8999 76.1299 34.9072 76.1006 34.9121C76.0469 34.9512 76.0054 34.9756 75.9761 34.9854C75.9517 34.9951 75.9175 35 75.8735 35C75.7954 35 75.7319 34.9854 75.6831 34.9561C75.6392 34.9268 75.5879 34.895 75.5293 34.8608C75.5244 34.8608 75.5024 34.8584 75.4634 34.8535C75.4243 34.8438 75.3999 34.834 75.3901 34.8242C75.3706 34.8096 75.3438 34.7852 75.3096 34.751C75.2803 34.7119 75.2656 34.6899 75.2656 34.6851ZM77.4336 30.6128C77.4434 30.6274 77.4507 30.6592 77.4556 30.708C77.4653 30.7568 77.4702 30.7861 77.4702 30.7959C77.4849 30.8398 77.4946 30.8887 77.4995 30.9424C77.5044 30.9961 77.5117 31.0498 77.5215 31.1035C77.5312 31.1572 77.5459 31.2061 77.5654 31.25C77.585 31.2939 77.6167 31.3306 77.6606 31.3599C77.7485 31.4282 77.8267 31.4771 77.895 31.5063C77.9683 31.5308 78.0684 31.543 78.1953 31.543C78.2051 31.543 78.2246 31.5381 78.2539 31.5283C78.2881 31.5137 78.3101 31.5063 78.3198 31.5063L78.7227 31.2354C78.752 31.2158 78.7886 31.1987 78.8325 31.1841C78.8765 31.1646 78.918 31.1426 78.957 31.1182C78.9961 31.0938 79.0303 31.0669 79.0596 31.0376C79.0938 31.0083 79.1133 30.9741 79.1182 30.9351C79.1182 30.9253 79.1206 30.9009 79.1255 30.8618C79.1304 30.8228 79.1353 30.7812 79.1401 30.7373C79.145 30.6885 79.1499 30.6396 79.1548 30.5908C79.1597 30.542 79.1646 30.5029 79.1694 30.4736V30.4224C79.1694 30.2026 79.1279 29.9878 79.0449 29.7778C78.9668 29.5679 78.8423 29.3872 78.6714 29.2358C78.6177 29.1821 78.5615 29.1333 78.5029 29.0894C78.4492 29.0405 78.3809 29.0161 78.2979 29.0161H78.1953L77.7485 29.0601C77.6216 29.1479 77.5435 29.2505 77.5142 29.3677C77.4849 29.48 77.4702 29.6094 77.4702 29.7559V30.2979C77.4702 30.3125 77.4653 30.354 77.4556 30.4224C77.4507 30.4858 77.4434 30.5347 77.4336 30.5688V30.6128ZM86.3911 34.7583C86.3911 34.6704 86.4131 34.6045 86.457 34.5605C86.5059 34.5166 86.562 34.4849 86.6255 34.4653C86.6938 34.4409 86.7622 34.4238 86.8306 34.4141C86.9038 34.4043 86.9673 34.3896 87.021 34.3701C87.1772 34.165 87.2798 33.9307 87.3286 33.667C87.3774 33.4033 87.4019 33.1348 87.4019 32.8613C87.4019 32.6807 87.397 32.5049 87.3872 32.334C87.3823 32.1631 87.3799 31.9995 87.3799 31.8433V31.6895C87.3799 31.6699 87.3823 31.6235 87.3872 31.5503C87.3921 31.4722 87.397 31.3916 87.4019 31.3086C87.4116 31.2207 87.4189 31.1401 87.4238 31.0669C87.4336 30.9888 87.4385 30.9399 87.4385 30.9204C87.4385 30.9058 87.4336 30.874 87.4238 30.8252C87.4189 30.7764 87.4116 30.7251 87.4019 30.6714C87.397 30.6177 87.3921 30.5664 87.3872 30.5176C87.3823 30.4688 87.3799 30.437 87.3799 30.4224C87.375 30.3882 87.3701 30.3223 87.3652 30.2246C87.3604 30.1221 87.353 30.0146 87.3433 29.9023C87.3384 29.7852 87.3311 29.6777 87.3213 29.5801C87.3115 29.4775 87.3042 29.4043 87.2993 29.3604C87.2456 29.2676 87.1748 29.1895 87.0869 29.126C87.0039 29.0576 86.9209 28.9941 86.8379 28.9355C86.7549 28.877 86.6816 28.8184 86.6182 28.7598C86.5596 28.6963 86.5303 28.623 86.5303 28.54V28.4521C86.5303 28.418 86.5327 28.3887 86.5376 28.3643C86.5474 28.335 86.5693 28.3179 86.6035 28.313C86.7354 28.269 86.8794 28.2324 87.0356 28.2031C87.1919 28.1738 87.3506 28.1519 87.5117 28.1372C87.6729 28.1177 87.8291 28.1055 87.9805 28.1006C88.1367 28.0957 88.2808 28.0933 88.4126 28.0933H88.5664C88.5859 28.103 88.625 28.1201 88.6836 28.1445C88.7422 28.1641 88.7764 28.1738 88.7861 28.1738H89.2036C89.2134 28.1738 89.2329 28.1763 89.2622 28.1812C89.2964 28.186 89.3306 28.1934 89.3647 28.2031C89.4038 28.208 89.4404 28.2153 89.4746 28.2251C89.5088 28.2349 89.5356 28.2422 89.5552 28.2471C89.8237 28.3105 90.0996 28.3716 90.3828 28.4302C90.6709 28.4888 90.9395 28.5889 91.1885 28.7305C91.208 28.7549 91.2397 28.8013 91.2837 28.8696C91.3325 28.9331 91.3838 29.0039 91.4375 29.082C91.4912 29.1553 91.54 29.2261 91.584 29.2944C91.6328 29.3628 91.667 29.4116 91.6865 29.4409C91.6914 29.4507 91.7012 29.4751 91.7158 29.5142C91.7354 29.5483 91.7451 29.5703 91.7451 29.5801C91.75 29.5947 91.7573 29.6362 91.7671 29.7046C91.7817 29.7681 91.7964 29.8413 91.811 29.9243C91.8257 30.0024 91.8379 30.083 91.8477 30.166C91.8623 30.2441 91.8721 30.3052 91.877 30.3491C91.877 30.354 91.8794 30.3589 91.8843 30.3638C91.894 30.3735 91.8989 30.3857 91.8989 30.4004C91.8989 30.459 91.8818 30.5396 91.8477 30.6421C91.8184 30.7397 91.7793 30.8398 91.7305 30.9424C91.6865 31.0449 91.6353 31.1401 91.5767 31.228C91.5181 31.3159 91.4619 31.377 91.4082 31.4111C91.3936 31.4209 91.3594 31.4404 91.3057 31.4697C91.2568 31.499 91.2031 31.5283 91.1445 31.5576C91.0908 31.5869 91.0396 31.6162 90.9907 31.6455C90.9468 31.6699 90.9199 31.6846 90.9102 31.6895C90.9004 31.6943 90.8809 31.7065 90.8516 31.7261C90.8223 31.7456 90.7905 31.7676 90.7563 31.792C90.7271 31.8164 90.6978 31.8384 90.6685 31.8579C90.6392 31.8774 90.6196 31.8896 90.6099 31.8945C90.605 31.8994 90.5928 31.9067 90.5732 31.9165C90.5537 31.9214 90.5317 31.9287 90.5073 31.9385C90.4878 31.9482 90.4683 31.958 90.4487 31.9678C90.4292 31.9727 90.4194 31.9751 90.4194 31.9751C90.3999 31.98 90.373 31.9922 90.3389 32.0117C90.3047 32.0264 90.2852 32.0386 90.2803 32.0483H89.8848C89.7822 32.0483 89.6919 32.0483 89.6138 32.0483C89.5356 32.0483 89.4575 32.0459 89.3794 32.041C89.3013 32.0361 89.2207 32.0288 89.1377 32.019C89.0547 32.0093 88.957 31.9946 88.8447 31.9751C88.8057 31.9897 88.7739 32.0068 88.7495 32.0264C88.686 32.0605 88.6543 32.0898 88.6543 32.1143V33.3154C88.6934 33.3789 88.7153 33.4351 88.7202 33.4839C88.73 33.5327 88.7349 33.5913 88.7349 33.6597C88.7349 33.7427 88.7202 33.8208 88.6909 33.894C88.6665 33.9673 88.6543 34.0454 88.6543 34.1284V34.1504C88.6689 34.1748 88.7007 34.2139 88.7495 34.2676C88.8032 34.3213 88.835 34.3555 88.8447 34.3701C88.9033 34.3701 88.9717 34.3652 89.0498 34.3555C89.1328 34.3457 89.2158 34.3408 89.2988 34.3408C89.4258 34.3408 89.5381 34.3604 89.6357 34.3994C89.7334 34.4385 89.7822 34.5239 89.7822 34.6558C89.7822 34.7241 89.7554 34.7998 89.7017 34.8828C89.6528 34.9609 89.5869 35 89.5039 35H86.8086C86.7891 35 86.7549 34.9951 86.7061 34.9854C86.6621 34.9707 86.6157 34.9536 86.5669 34.9341C86.5229 34.9097 86.4814 34.8828 86.4424 34.8535C86.4082 34.8242 86.3911 34.7925 86.3911 34.7583ZM88.6543 31.4771C88.6641 31.4917 88.6836 31.5161 88.7129 31.5503C88.7471 31.5845 88.7715 31.6064 88.7861 31.6162H88.8228H88.8447C88.8545 31.6162 88.874 31.6138 88.9033 31.6089C88.9326 31.5991 88.9644 31.5918 88.9985 31.5869C89.0327 31.5771 89.0645 31.5698 89.0938 31.5649C89.123 31.5552 89.1426 31.5503 89.1523 31.5503H89.2769H89.6943H89.7822C89.7969 31.5503 89.8237 31.5381 89.8628 31.5137C89.9019 31.4893 89.9434 31.4624 89.9873 31.4331C90.0312 31.4038 90.0728 31.3745 90.1118 31.3452C90.1558 31.311 90.1851 31.2842 90.1997 31.2646C90.2046 31.2598 90.2095 31.2451 90.2144 31.2207C90.2192 31.1914 90.2241 31.1621 90.229 31.1328C90.2388 31.0986 90.2461 31.0669 90.251 31.0376C90.2607 31.0083 90.2705 30.9912 90.2803 30.9863C90.29 30.9424 90.3047 30.9033 90.3242 30.8691C90.3486 30.835 90.373 30.8032 90.3975 30.7739C90.4219 30.7397 90.4438 30.7056 90.4634 30.6714C90.4829 30.6323 90.4927 30.5884 90.4927 30.5396C90.4927 30.52 90.4878 30.4956 90.478 30.4663C90.4731 30.4517 90.4707 30.437 90.4707 30.4224C90.4658 30.3638 90.4561 30.2881 90.4414 30.1953C90.4316 30.0977 90.4194 30 90.4048 29.9023C90.3901 29.8047 90.3755 29.7192 90.3608 29.646C90.3462 29.5728 90.3364 29.5288 90.3315 29.5142C90.3071 29.4116 90.2656 29.3237 90.207 29.2505C90.1533 29.1724 90.0874 29.1064 90.0093 29.0527C89.936 28.9941 89.8555 28.9453 89.7676 28.9062C89.6797 28.8672 89.5918 28.833 89.5039 28.8037H89.4526C89.3452 28.8037 89.2231 28.8135 89.0864 28.833C88.9546 28.8477 88.8276 28.8843 88.7056 28.9429C88.7153 29.0063 88.7202 29.0674 88.7202 29.126C88.7202 29.1846 88.7202 29.2456 88.7202 29.3091C88.7202 29.5972 88.708 29.8828 88.6836 30.166C88.6641 30.4443 88.6543 30.7349 88.6543 31.0376V31.4771ZM96.5059 33.96C96.5059 33.916 96.5083 33.8721 96.5132 33.8281C96.5181 33.7793 96.5278 33.7354 96.5425 33.6963C96.5571 33.6523 96.5767 33.6182 96.6011 33.5938C96.6304 33.5693 96.667 33.5571 96.7109 33.5571H96.7695C96.8525 33.5864 96.9233 33.6328 96.9819 33.6963C97.0454 33.7549 97.0942 33.8257 97.1284 33.9087L97.165 34.0845C97.1748 34.0942 97.1895 34.1113 97.209 34.1357C97.2334 34.1553 97.2529 34.1699 97.2676 34.1797L97.3408 34.2236C97.3506 34.2334 97.3677 34.2651 97.3921 34.3188C97.4165 34.3677 97.4336 34.397 97.4434 34.4067C97.4531 34.4116 97.4678 34.4263 97.4873 34.4507C97.5068 34.4702 97.5215 34.4849 97.5312 34.4946C97.5557 34.4849 97.5801 34.48 97.6045 34.48C97.6338 34.48 97.6606 34.48 97.6851 34.48C97.7388 34.48 97.7949 34.4873 97.8535 34.502C97.917 34.5166 97.9707 34.5435 98.0146 34.5825C98.0684 34.5923 98.1221 34.6021 98.1758 34.6118C98.2295 34.6167 98.2856 34.6191 98.3442 34.6191C98.3979 34.6191 98.4541 34.6167 98.5127 34.6118C98.5713 34.6021 98.6299 34.5923 98.6885 34.5825C98.7373 34.5728 98.7959 34.5288 98.8643 34.4507C98.9375 34.3726 99.0059 34.2847 99.0693 34.187C99.1328 34.0845 99.1865 33.9868 99.2305 33.894C99.2793 33.7964 99.3037 33.7256 99.3037 33.6816V33.5938C99.3037 33.5742 99.3013 33.5449 99.2964 33.5059C99.2915 33.4619 99.2866 33.418 99.2817 33.374C99.2817 33.3301 99.2793 33.2935 99.2744 33.2642C99.2695 33.23 99.2671 33.208 99.2671 33.1982C99.2573 33.1934 99.2402 33.1738 99.2158 33.1396C99.1914 33.1006 99.1792 33.0737 99.1792 33.0591C99.1597 33.0298 99.145 32.9956 99.1353 32.9565C99.1255 32.9175 99.1133 32.8809 99.0986 32.8467C99.084 32.8076 99.0645 32.7734 99.04 32.7441C99.0205 32.7148 98.9912 32.6904 98.9521 32.6709C98.9424 32.6611 98.918 32.6514 98.8789 32.6416C98.8447 32.6318 98.8276 32.6245 98.8276 32.6196C98.8179 32.6196 98.7935 32.6001 98.7544 32.561C98.7153 32.522 98.6934 32.4976 98.6885 32.4878C98.6787 32.478 98.6616 32.4658 98.6372 32.4512C98.6128 32.4316 98.5859 32.4146 98.5566 32.3999C98.5273 32.3804 98.5005 32.3633 98.4761 32.3486C98.4517 32.334 98.4321 32.3218 98.4175 32.312C98.4126 32.3071 98.3955 32.2974 98.3662 32.2827C98.3418 32.2681 98.3149 32.2534 98.2856 32.2388C98.2563 32.2241 98.2271 32.2119 98.1978 32.2021C98.1733 32.1875 98.1587 32.1777 98.1538 32.1729C98.1392 32.1631 98.1074 32.1411 98.0586 32.1069C98.0098 32.0679 97.9829 32.0435 97.978 32.0337C97.8755 31.9653 97.7852 31.9141 97.707 31.8799C97.6338 31.8408 97.5654 31.8042 97.502 31.77C97.4385 31.731 97.3774 31.6846 97.3188 31.6309C97.2603 31.5723 97.1968 31.4868 97.1284 31.3745C97.1138 31.3452 97.0918 31.3086 97.0625 31.2646C97.0332 31.2158 97.0039 31.1694 96.9746 31.1255C96.9453 31.0767 96.9185 31.0327 96.894 30.9937C96.8745 30.9546 96.8623 30.9302 96.8574 30.9204C96.8525 30.9106 96.8428 30.8838 96.8281 30.8398C96.8184 30.7959 96.8135 30.7642 96.8135 30.7446V29.8584C96.8135 29.8535 96.8184 29.8315 96.8281 29.7925C96.8379 29.7485 96.8501 29.6973 96.8647 29.6387C96.8794 29.5801 96.894 29.5215 96.9087 29.4629C96.9282 29.4043 96.9429 29.3579 96.9526 29.3237C96.9673 29.2554 96.9844 29.2065 97.0039 29.1772C97.0283 29.1431 97.0552 29.1162 97.0845 29.0967C97.1138 29.0771 97.1455 29.0601 97.1797 29.0454C97.2188 29.0308 97.2603 29.0063 97.3042 28.9722C97.3188 28.9575 97.3481 28.9282 97.3921 28.8843C97.436 28.8403 97.4824 28.7939 97.5312 28.7451C97.5801 28.6914 97.6265 28.6426 97.6704 28.5986C97.7144 28.5547 97.7412 28.5254 97.751 28.5107C97.7803 28.4863 97.8267 28.4692 97.8901 28.4595C97.9536 28.4448 97.9951 28.4326 98.0146 28.4229C98.1611 28.3789 98.3027 28.3472 98.4395 28.3276C98.5762 28.3081 98.7227 28.2983 98.8789 28.2983H99.0913C99.1206 28.2983 99.1694 28.3008 99.2378 28.3057C99.311 28.3057 99.3867 28.3081 99.4648 28.313C99.543 28.3179 99.6162 28.3228 99.6846 28.3276C99.7578 28.3276 99.8091 28.3301 99.8384 28.335C99.8823 28.3496 99.9336 28.3813 99.9922 28.4302C100.056 28.4741 100.117 28.5254 100.175 28.584C100.234 28.6426 100.283 28.7061 100.322 28.7744C100.361 28.8428 100.38 28.9087 100.38 28.9722C100.375 28.9771 100.368 29.0039 100.358 29.0527C100.349 29.1016 100.344 29.1333 100.344 29.1479V29.4995C100.339 29.5093 100.332 29.5312 100.322 29.5654C100.317 29.5947 100.31 29.6289 100.3 29.668C100.29 29.707 100.278 29.7461 100.263 29.7852C100.253 29.8193 100.246 29.8438 100.241 29.8584C100.236 29.8828 100.222 29.8975 100.197 29.9023C100.178 29.9072 100.156 29.9097 100.131 29.9097H99.9775C99.9531 29.8999 99.9312 29.8828 99.9116 29.8584C99.897 29.8291 99.8823 29.7998 99.8677 29.7705C99.853 29.7412 99.8408 29.7144 99.8311 29.6899C99.8213 29.6606 99.8115 29.6387 99.8018 29.624C99.792 29.6191 99.7773 29.6069 99.7578 29.5874C99.7383 29.5679 99.7163 29.5459 99.6919 29.5215C99.6724 29.4971 99.6504 29.4751 99.626 29.4556C99.6064 29.4312 99.5918 29.4116 99.582 29.397C99.5771 29.397 99.5601 29.3945 99.5308 29.3896C99.5063 29.3799 99.4917 29.3701 99.4868 29.3604C99.4575 29.3457 99.4355 29.3262 99.4209 29.3018C99.4062 29.2725 99.3916 29.2432 99.377 29.2139C99.3672 29.1846 99.3525 29.1553 99.333 29.126C99.3184 29.0967 99.2964 29.0698 99.2671 29.0454C99.2476 29.0405 99.2134 29.0283 99.1646 29.0088C99.1157 28.9893 99.062 28.9722 99.0034 28.9575C98.9448 28.938 98.8887 28.9209 98.835 28.9062C98.7812 28.8867 98.7446 28.8745 98.7251 28.8696H98.5054C98.4907 28.8843 98.4663 28.9087 98.4321 28.9429C98.3979 28.9722 98.3613 29.0063 98.3223 29.0454C98.2832 29.0845 98.2466 29.1211 98.2124 29.1553C98.1831 29.1846 98.1636 29.2065 98.1538 29.2212C98.0903 29.3042 98.0513 29.4067 98.0366 29.5288C98.022 29.6509 98.0146 29.7607 98.0146 29.8584C98.0146 29.9414 98.0244 30.0171 98.0439 30.0854C98.0684 30.1538 98.0977 30.2197 98.1318 30.2832C98.1709 30.3467 98.2148 30.4077 98.2637 30.4663C98.3125 30.5249 98.3638 30.5884 98.4175 30.6567C98.4614 30.7153 98.5078 30.7568 98.5566 30.7812C98.6104 30.8008 98.6641 30.8154 98.7178 30.8252C98.7764 30.835 98.8325 30.8447 98.8862 30.8545C98.9399 30.8643 98.9912 30.8862 99.04 30.9204C99.0449 30.9253 99.0596 30.9399 99.084 30.9644C99.1133 30.9888 99.1426 31.0132 99.1719 31.0376C99.2012 31.062 99.228 31.0864 99.2524 31.1108C99.2817 31.1304 99.2988 31.1426 99.3037 31.1475C99.3135 31.1572 99.3306 31.1719 99.355 31.1914C99.3843 31.2061 99.4136 31.2231 99.4429 31.2427C99.4722 31.2573 99.499 31.2744 99.5234 31.2939C99.5527 31.3086 99.5723 31.3184 99.582 31.3232C99.5918 31.333 99.6211 31.3501 99.6699 31.3745C99.7188 31.394 99.7505 31.4062 99.7651 31.4111C99.7651 31.4209 99.7725 31.438 99.7871 31.4624C99.8018 31.4868 99.8359 31.5479 99.8896 31.6455L100.241 31.9971L100.38 32.085C100.449 32.1387 100.488 32.2144 100.498 32.312C100.512 32.4097 100.52 32.5024 100.52 32.5903V33.0591C100.495 33.103 100.48 33.1494 100.476 33.1982C100.476 33.2422 100.476 33.2861 100.476 33.3301V33.5571C100.476 33.5767 100.468 33.6084 100.454 33.6523C100.439 33.6963 100.429 33.7231 100.424 33.7329C100.424 33.7378 100.417 33.75 100.402 33.7695C100.393 33.7842 100.38 33.8013 100.366 33.8208C100.351 33.8403 100.336 33.8599 100.322 33.8794C100.307 33.894 100.297 33.9038 100.292 33.9087C100.288 33.9233 100.28 33.9551 100.271 34.0039C100.261 34.0527 100.251 34.0796 100.241 34.0845L100.205 34.2236C100.19 34.2432 100.161 34.2773 100.117 34.3262C100.078 34.375 100.034 34.4263 99.9849 34.48C99.936 34.5288 99.8896 34.5752 99.8457 34.6191C99.8066 34.6631 99.7798 34.6924 99.7651 34.707C99.7505 34.7217 99.7261 34.7412 99.6919 34.7656C99.6577 34.7852 99.6357 34.7998 99.626 34.8096C99.6162 34.8096 99.5967 34.812 99.5674 34.8169C99.5381 34.8169 99.5039 34.8193 99.4648 34.8242C99.4307 34.8291 99.3965 34.834 99.3623 34.8389C99.333 34.8438 99.3135 34.8462 99.3037 34.8462C99.2451 34.8608 99.1865 34.8828 99.1279 34.9121C99.0693 34.9365 99.0107 34.9634 98.9521 34.9927C98.8936 35.022 98.835 35.0488 98.7764 35.0732C98.7178 35.0977 98.6567 35.1123 98.5933 35.1172C98.5884 35.1172 98.5444 35.1172 98.4614 35.1172C98.3784 35.1221 98.3101 35.1245 98.2563 35.1245L97.9268 35.1172C97.9072 35.1074 97.8682 35.0903 97.8096 35.0659C97.7559 35.0464 97.7217 35.0317 97.707 35.022C97.6484 35.0024 97.5874 34.9878 97.5239 34.978C97.4653 34.9683 97.4043 34.9609 97.3408 34.9561C97.2822 34.9463 97.2236 34.9341 97.165 34.9194C97.1064 34.9048 97.0479 34.8804 96.9893 34.8462C96.9307 34.8169 96.8721 34.7754 96.8135 34.7217C96.7549 34.6631 96.7012 34.5996 96.6523 34.5312C96.6084 34.4629 96.5718 34.3921 96.5425 34.3188C96.5181 34.2407 96.5059 34.1675 96.5059 34.0991V33.96Z" fill="black"/>
<rect y="26" width="32" height="55" rx="16" fill="#FF0508"/>
<rect x="31" y="72" width="32" height="55" rx="16" fill="#FF0508"/>
<rect x="92" y="72" width="32" height="55" rx="16" fill="#FF0508"/>
</svg>
