<svg width="209" height="209" viewBox="0 0 209 209" fill="none" xmlns="http://www.w3.org/2000/svg">
<circle cx="104.5" cy="104.5" r="104.5" fill="white"/>
<path d="M61.816 138.096L60.792 150H30.2V72.304H28.28L29.56 60.4H42.36V138.096H61.816ZM98.34 138.608C98.34 142.192 97.2307 145.093 95.012 147.312C92.7933 149.445 89.892 150.512 86.308 150.512H77.092C73.508 150.512 70.6067 149.445 68.388 147.312C66.1693 145.093 65.06 142.192 65.06 138.608V71.792C65.06 68.208 66.1693 65.3493 68.388 63.216C70.6067 60.9973 73.508 59.888 77.092 59.888H86.308C89.892 59.888 92.7933 60.9973 95.012 63.216C97.2307 65.3493 98.34 68.208 98.34 71.792V138.608ZM77.86 71.792C77.4333 71.792 77.22 72.0053 77.22 72.432V137.968C77.22 138.395 77.4333 138.608 77.86 138.608H85.54C85.9667 138.608 86.18 138.395 86.18 137.968V72.432C86.18 72.0053 85.9667 71.792 85.54 71.792H77.86ZM136.715 138.096C136.715 141.68 135.606 144.581 133.387 146.8C131.168 148.933 128.267 150 124.683 150H115.467C111.883 150 108.982 148.933 106.763 146.8C104.544 144.581 103.435 141.68 103.435 138.096V72.304C103.435 68.72 104.544 65.8613 106.763 63.728C108.982 61.5093 111.883 60.4 115.467 60.4H124.683C128.267 60.4 131.168 61.5093 133.387 63.728C135.606 65.8613 136.715 68.72 136.715 72.304V92.784H124.555V72.944C124.555 72.5173 124.342 72.304 123.915 72.304H116.235C115.808 72.304 115.595 72.5173 115.595 72.944V137.456C115.595 137.883 115.808 138.096 116.235 138.096H123.915C124.342 138.096 124.555 137.883 124.555 137.456V110.96H119.563L120.587 99.056H136.715V138.096ZM175.09 138.608C175.09 142.192 173.981 145.093 171.762 147.312C169.543 149.445 166.642 150.512 163.058 150.512H153.842C150.258 150.512 147.357 149.445 145.138 147.312C142.919 145.093 141.81 142.192 141.81 138.608V71.792C141.81 68.208 142.919 65.3493 145.138 63.216C147.357 60.9973 150.258 59.888 153.842 59.888H163.058C166.642 59.888 169.543 60.9973 171.762 63.216C173.981 65.3493 175.09 68.208 175.09 71.792V138.608ZM154.61 71.792C154.183 71.792 153.97 72.0053 153.97 72.432V137.968C153.97 138.395 154.183 138.608 154.61 138.608H162.29C162.717 138.608 162.93 138.395 162.93 137.968V72.432C162.93 72.0053 162.717 71.792 162.29 71.792H154.61Z" fill="black"/>
</svg>
