<svg width="209" height="209" viewBox="0 0 209 209" fill="none" xmlns="http://www.w3.org/2000/svg">
<circle cx="104.5" cy="104.5" r="104.5" fill="white"/>
<path d="M61.056 99.184L59.776 111.088H46.72V150H34.56V72.304H32.64L33.92 60.4H63.616L62.336 72.304H46.72V99.184H61.056ZM66.78 72.304L68.06 60.4H88.284C91.868 60.4 94.7693 61.5093 96.988 63.728C99.2067 65.8613 100.316 68.72 100.316 72.304V112.368C100.316 114.245 99.932 115.952 99.164 117.488C98.396 118.939 97.372 120.176 96.092 121.2L104.284 150H91.996L84.7 124.272H80.86V150H68.7V72.304H66.78ZM87.516 72.304H80.86V112.368H87.516C87.9427 112.368 88.156 112.155 88.156 111.728V72.944C88.156 72.5173 87.9427 72.304 87.516 72.304ZM105.53 72.304L106.81 60.4H127.034C130.618 60.4 133.519 61.5093 135.738 63.728C137.957 65.8613 139.066 68.72 139.066 72.304V112.368C139.066 115.952 137.701 118.853 134.97 121.072C132.325 123.205 129.21 124.272 125.626 124.272H119.61V150H107.45V72.304H105.53ZM126.266 72.304H119.61V112.368H126.266C126.693 112.368 126.906 112.155 126.906 111.728V72.944C126.906 72.5173 126.693 72.304 126.266 72.304ZM155.72 124.4V137.968C155.72 138.395 155.933 138.608 156.36 138.608H161.48C161.907 138.608 162.12 138.395 162.12 137.968V114.928L152.008 110.448C151.24 110.192 150.173 109.765 148.808 109.168C147.443 108.485 146.205 107.504 145.096 106.224C144.072 104.944 143.56 103.195 143.56 100.976V71.792C143.56 68.208 144.669 65.3493 146.888 63.216C149.107 60.9973 152.008 59.888 155.592 59.888H162.248C165.832 59.888 168.733 60.9973 170.952 63.216C173.171 65.3493 174.28 68.208 174.28 71.792V90.736L162.12 89.712V72.432C162.12 72.0053 161.907 71.792 161.48 71.792H156.36C155.933 71.792 155.72 72.0053 155.72 72.432V99.184L165.832 103.664C166.6 104.005 167.667 104.475 169.032 105.072C170.397 105.669 171.592 106.608 172.616 107.888C173.725 109.168 174.28 110.917 174.28 113.136V138.608C174.28 142.192 173.171 145.093 170.952 147.312C168.733 149.445 165.832 150.512 162.248 150.512H155.592C152.008 150.512 149.107 149.445 146.888 147.312C144.669 145.093 143.56 142.192 143.56 138.608V124.4H155.72Z" fill="black"/>
</svg>
